<svg width="881" height="622" xmlns="http://www.w3.org/2000/svg" xmlns:xlink="http://www.w3.org/1999/xlink" xml:space="preserve" overflow="hidden"><g transform="translate(-1682 -927)"><path d="M1696 1237.5C1696 1090.87 1872.18 972 2089.5 972 2306.82 972 2483 1090.87 2483 1237.5 2483 1384.13 2306.82 1503 2089.5 1503 1872.18 1503 1696 1384.13 1696 1237.5Z" stroke="#000000" stroke-width="27.5" stroke-miterlimit="8" fill="#EA0000" fill-rule="evenodd"/><path d="M1955 1040C1955 985.325 1999.32 941 2054 941L2450 941C2504.68 941 2549 985.325 2549 1040L2549 1436C2549 1490.68 2504.68 1535 2450 1535L2054 1535C1999.32 1535 1955 1490.68 1955 1436Z" stroke="#000000" stroke-width="27.5" stroke-miterlimit="8" fill="#FF0000" fill-rule="evenodd"/><path d="M2021 1057C2021 1014.47 2055.47 980 2098 980L2406 980C2448.53 980 2483 1014.47 2483 1057L2483 1365C2483 1407.53 2448.53 1442 2406 1442L2098 1442C2055.47 1442 2021 1407.53 2021 1365Z" stroke="#404040" stroke-width="27.5" stroke-miterlimit="8" fill-rule="evenodd"/></g></svg>