<svg width="2964" height="622" xmlns="http://www.w3.org/2000/svg" xmlns:xlink="http://www.w3.org/1999/xlink" xml:space="preserve" overflow="hidden"><g transform="translate(-585 -1042)"><path d="M599 1353C599 1206.09 775.176 1087 992.5 1087 1209.82 1087 1386 1206.09 1386 1353 1386 1499.91 1209.82 1619 992.5 1619 775.176 1619 599 1499.91 599 1353Z" stroke="#000000" stroke-width="27.5" stroke-miterlimit="8" fill="#EA0000" fill-rule="evenodd"/><path d="M858 1155C858 1100.32 902.325 1056 957.002 1056L1353 1056C1407.68 1056 1452 1100.32 1452 1155L1452 1551C1452 1605.68 1407.68 1650 1353 1650L957.002 1650C902.325 1650 858 1605.68 858 1551Z" stroke="#000000" stroke-width="27.5" stroke-miterlimit="8" fill="#FF0000" fill-rule="evenodd"/><path d="M924 1173C924 1130.47 958.475 1096 1001 1096L1309 1096C1351.53 1096 1386 1130.47 1386 1173L1386 1481C1386 1523.53 1351.53 1558 1309 1558L1001 1558C958.475 1558 924 1523.53 924 1481Z" stroke="#404040" stroke-width="27.5" stroke-miterlimit="8" fill-rule="evenodd"/><path d="M2893.73 1221.35C2907.6 1194.71 2935.3 1175.71 2965.31 1172.68 2987.87 1170.21 3011.89 1174.3 3030.61 1187.67 3050.16 1201.17 3063.28 1222.34 3069.82 1244.87 3077.15 1269.53 3076.28 1295.57 3075.48 1320.99 3073.87 1357.75 3062.72 1395.43 3037.68 1423.24 3009.61 1454.58 2965.87 1467.76 2924.65 1465.81 2923.78 1450.89 2923.96 1435.94 2924.49 1421.01 2937.03 1419.12 2949.93 1419.79 2962.23 1416.26 2977.53 1412.24 2992.3 1404.28 3002.09 1391.62 3011.81 1379.56 3016.32 1364.21 3017.89 1349.02 3006.76 1356.46 2995.87 1365.13 2982.46 1368.02 2960.66 1372.9 2936.44 1369.29 2918.13 1356.16 2900.81 1344.33 2889.72 1325.19 2884.73 1305.16 2877.99 1277.37 2880.04 1246.82 2893.73 1221.35M2968.15 1217.72C2958.22 1220.61 2950.9 1228.9 2946.15 1237.71 2937.55 1254.2 2936.38 1273.84 2940.23 1291.82 2943.01 1304.76 2950.03 1317.68 2962.17 1324.06 2981.92 1333.95 3008.45 1324.48 3017.41 1304.4 3019.6 1296.07 3018.49 1287.32 3018.67 1278.82 3018.57 1261.62 3016.22 1243.08 3004.96 1229.32 2996.35 1218.65 2981.37 1213.87 2968.15 1217.72Z" fill="#131313" fill-rule="evenodd" fill-opacity="0.501961"/><path d="M3163.62 1182.07C3184.16 1172.11 3207.71 1170.59 3230.09 1173.01 3251.07 1175.76 3272.13 1184.46 3286.2 1200.67 3303.75 1220.96 3307.74 1250.76 3299.73 1275.86 3294.05 1293.38 3279.52 1305.54 3264.82 1315.54 3279.07 1322.76 3292.24 1332.88 3300.27 1346.97 3311.09 1365.07 3312.1 1387.58 3307.14 1407.69 3301.72 1429.71 3284.76 1447.97 3264.1 1456.85 3238.28 1468.16 3208.79 1469.44 3181.45 1463.55 3160.71 1459.04 3140.67 1448.19 3128.45 1430.47 3113.71 1409.47 3111.4 1380.97 3119.97 1357.11 3126.8 1338.07 3143.02 1324.7 3160.09 1314.92 3147.62 1306.8 3135.43 1297.18 3128.81 1283.49 3120.01 1266.84 3119.95 1246.91 3124.15 1228.91 3129.19 1208.31 3144.43 1190.85 3163.62 1182.07M3200.94 1217.77C3183.09 1222.74 3176.43 1243.59 3178.62 1260.24 3179.48 1275.5 3189.96 1291.41 3206.14 1293.09 3221.66 1296.3 3238.94 1287.84 3243.98 1272.45 3249.1 1256.86 3248.42 1236.93 3235.87 1224.93 3226.88 1215.89 3212.74 1214.62 3200.94 1217.77M3200.76 1339.42C3186.3 1342.62 3175.34 1355.51 3173.03 1369.9 3170.67 1383.81 3172.29 1399.89 3182.43 1410.55 3194.31 1423.42 3214.63 1425.66 3230.39 1419.37 3243.38 1414.14 3251.31 1400.59 3252.29 1387 3253.76 1373.35 3250.87 1358.34 3240.67 1348.48 3230.33 1338.33 3214.41 1336.33 3200.76 1339.42Z" fill="#131313" fill-rule="evenodd" fill-opacity="0.501961"/><path d="M2773.26 1179.5C2778.57 1177.46 2784.1 1176.1 2789.69 1175 2790.27 1270.83 2789.85 1366.68 2789.91 1462.51 2771.03 1463.11 2752.12 1463.25 2733.25 1462.43 2733.33 1399.24 2733.29 1336.04 2733.29 1272.85 2733.35 1262.59 2733.57 1252.31 2732.86 1242.05 2709.8 1247.19 2687.98 1256.67 2665.08 1262.43 2665.22 1247.69 2664.58 1232.93 2665.54 1218.22 2701.27 1204.84 2737.47 1192.72 2773.26 1179.5Z" fill="#131313" fill-rule="evenodd" fill-opacity="0.501961"/><path d="M3458.94 1176.77C3478 1175.53 3497.16 1176.07 3516.27 1176.49 3517.09 1236.3 3515.69 1296.15 3516.93 1355.97 3527.45 1355.97 3538.02 1355.49 3548.56 1356.31 3549.08 1370.93 3549.28 1385.61 3548.36 1400.21 3537.77 1400.42 3527.21 1399.97 3516.69 1400.6 3515.89 1421.31 3517.03 1442.02 3516.29 1462.73 3497.65 1463.07 3478.98 1463.11 3460.34 1462.71 3459.34 1442.08 3460.6 1421.43 3459.88 1400.82 3420.79 1399.39 3381.67 1400.84 3342.58 1400.17 3341.36 1390.36 3340.01 1380.52 3340.01 1370.63 3339.69 1363.16 3344.84 1357.21 3348.51 1351.22 3385.56 1293.21 3421.72 1234.64 3458.94 1176.77M3428.93 1301.3C3418.49 1319.37 3406.24 1336.46 3397.08 1355.22 3417.99 1355.83 3438.97 1356.17 3459.86 1355.06 3460.12 1320.75 3460.24 1286.42 3459.76 1252.1 3448.22 1267.67 3439.34 1285 3428.93 1301.3Z" fill="#131313" fill-rule="evenodd" fill-opacity="0.501961"/><path d="M1587.2 1211.81C1591.67 1207.42 1598.42 1208.18 1604.14 1208 1639.52 1208.28 1674.92 1207.8 1710.3 1208.22 1716.97 1207.68 1717.85 1215.79 1717.97 1220.69 1718.07 1226.41 1718.39 1236.97 1710.3 1236.75 1679.61 1237.13 1648.89 1236.65 1618.18 1236.95 1617.98 1265.83 1617.94 1294.72 1618.22 1323.62 1646.85 1324.08 1675.5 1323.6 1704.15 1323.84 1707.26 1323.62 1710.6 1324.6 1711.58 1327.95 1713.4 1334.44 1713.44 1341.71 1711.32 1348.13 1709.64 1352.71 1704.25 1352.03 1700.37 1352.19 1673.06 1352.11 1645.75 1352.29 1618.42 1352.21 1616.88 1388.93 1619.08 1425.78 1617.14 1462.48 1606.51 1465.42 1594.43 1466.58 1584.26 1461.52 1583.74 1383.25 1584.26 1304.96 1584 1226.69 1584.26 1221.69 1583.46 1215.77 1587.2 1211.81Z" fill="#272727" fill-rule="evenodd"/><path d="M1987.29 1230.26C1993.75 1225.96 2002.1 1227.03 2009.45 1227.37 2012.89 1227.93 2018.48 1228.51 2018.56 1233.1 2019.36 1247.22 2018.42 1261.41 2018.94 1275.55 2034.3 1276.22 2049.69 1275.21 2065.05 1275.98 2067.88 1275.85 2069.48 1278.63 2069.98 1281.06 2071.78 1287.97 2070.74 1295.23 2068.42 1301.88 2052.06 1304.25 2035.44 1302.2 2018.96 1303.04 2018.54 1334.49 2018.92 1365.96 2018.76 1397.4 2018.8 1408.09 2018.84 1419.38 2023.89 1429.11 2026.91 1435.02 2033.3 1438.51 2039.76 1439 2049.57 1440.22 2058.76 1435.92 2067.92 1433.11 2071.76 1440.89 2072.04 1450.63 2068.6 1458.59 2063.15 1464.6 2054.3 1465.3 2046.73 1466.51 2030.77 1468.07 2012.61 1466.38 2000.52 1454.65 1989.39 1443.4 1986.93 1426.72 1986.47 1411.55 1986.05 1375.38 1986.63 1339.19 1986.19 1303.02 1977.02 1302.42 1967.55 1304.05 1958.6 1301.88 1954.19 1297.54 1954.95 1290.48 1955.23 1284.82 1955.89 1281.6 1956.23 1276.46 1960.44 1276.1 1968.99 1275.23 1977.62 1275.98 1986.19 1275.57 1987.21 1260.5 1984.92 1245.15 1987.29 1230.26Z" fill="#272727" fill-rule="evenodd"/><path d="M2388.1 1275.14C2399.73 1270.36 2413.28 1271.37 2424.83 1275.91 2429.52 1277.31 2429.74 1282.76 2429.92 1286.81 2429.88 1294.08 2430.93 1302.16 2426.41 1308.43 2415.73 1305.51 2404.3 1300.29 2393.21 1304.43 2380.96 1309.33 2373.16 1320.7 2365.64 1330.96 2362.85 1335.44 2358.66 1339.72 2358.7 1345.32 2358.44 1384.11 2359.04 1422.93 2358.42 1461.72 2348.55 1466.48 2336.96 1465.43 2326.72 1462.54 2325.41 1449.55 2326.34 1436.49 2326.09 1423.5 2326.3 1374.81 2325.67 1326.12 2326.4 1277.45 2335.1 1274.06 2346.71 1272.59 2354.77 1277.98 2356.31 1287.03 2355.37 1296.31 2355.93 1305.45 2365.12 1293.98 2374.24 1281.29 2388.1 1275.14Z" fill="#272727" fill-rule="evenodd"/><path d="M2470.64 1301.07C2483.52 1284.55 2503.62 1274.38 2524.35 1272.53 2541.34 1270.99 2559.21 1272.53 2574.48 1280.67 2585.6 1286.37 2595.01 1295.29 2601.17 1306.18 2610.34 1322.14 2613 1340.95 2613 1359.12 2612.8 1363.63 2612.94 1368.87 2609.56 1372.34 2606.28 1375.95 2601.07 1376.09 2596.57 1376.17 2558.91 1376.23 2521.25 1375.91 2483.6 1376.31 2483.84 1392.53 2485.84 1410.1 2496.53 1423.09 2505.7 1434.42 2520.43 1439.6 2534.59 1440.36 2551.92 1441.54 2569.41 1438.63 2585.54 1432.26 2591.39 1430.05 2597.21 1426.78 2603.69 1427.58 2605.56 1435.34 2607.16 1444.55 2602.73 1451.69 2597.85 1456.12 2591.25 1457.88 2585.14 1459.95 2559.85 1467.33 2532.43 1469.84 2506.76 1462.98 2488.87 1458.14 2472.66 1446.55 2463.43 1430.31 2452.14 1410.66 2449.46 1387.38 2450.08 1365.08 2450.72 1342.46 2456.29 1319.06 2470.64 1301.07M2497.09 1313.72C2488.55 1324.41 2483.36 1338.41 2484.24 1352.16 2516.26 1351.98 2548.28 1352.12 2580.3 1352.1 2580.82 1334.66 2576.06 1314.85 2560.71 1304.64 2541.06 1292.53 2512.02 1295.21 2497.09 1313.72Z" fill="#272727" fill-rule="evenodd"/><path d="M1765.54 1277.87C1775.57 1273.95 1787.01 1274.23 1797.15 1277.57 1799.2 1318.23 1796.45 1359.08 1798.57 1399.76 1799.74 1413.22 1805.04 1427.9 1817.52 1434.76 1830.87 1442.4 1848.07 1439.38 1859.88 1430.2 1869.14 1422.92 1878.29 1414.86 1884.69 1404.92 1886.03 1362.62 1884.49 1320.19 1885.65 1277.89 1894.51 1274.31 1904.68 1274.29 1913.86 1276.53 1918.84 1277.55 1917.7 1283.45 1918 1287.19 1917.72 1345.32 1918.26 1403.42 1917.72 1461.52 1909.16 1465.42 1898.69 1465.78 1889.99 1462.28 1886.49 1454.16 1888.89 1444.38 1888.21 1435.6 1875.42 1448.38 1861.14 1461.06 1843.01 1465.16 1821.26 1470.16 1795.61 1465.22 1780.95 1447.34 1766.68 1430.14 1765.18 1406.66 1765.08 1385.3 1765.38 1349.5 1764.46 1313.65 1765.54 1277.87Z" fill="#272727" fill-rule="evenodd"/><path d="M2113.67 1277.57C2122.82 1274.59 2133.05 1274.07 2142.32 1276.73 2146.36 1277.47 2145.46 1282.11 2145.8 1285.15 2145.76 1318.53 2145.76 1351.91 2145.78 1385.29 2145.94 1399.57 2146.98 1415.15 2156.19 1426.83 2165.51 1438.88 2183.19 1442.14 2196.9 1436.34 2209.4 1431.13 2218.97 1421.11 2228.02 1411.37 2229.98 1408.81 2232.92 1406.39 2233.14 1402.95 2233.86 1361.17 2232.4 1319.33 2233.86 1277.59 2242.97 1274.53 2253.21 1274.11 2262.46 1276.71 2266.3 1277.67 2265.78 1282.09 2265.98 1285.15 2265.94 1340.57 2265.9 1395.99 2266 1451.42 2265.94 1455.08 2265.58 1458.74 2265.1 1462.38 2255.93 1465.14 2246.06 1465.36 2236.95 1462.24 2236.11 1453.6 2236.29 1444.92 2235.91 1436.26 2227.16 1443.98 2218.97 1452.54 2208.61 1458.18 2191.61 1468 2170.41 1469.52 2151.93 1463.26 2136.43 1458 2124.26 1445.06 2118.89 1429.73 2111.3 1408.43 2113.43 1385.47 2113.08 1363.29 2113.47 1334.73 2112.34 1306.11 2113.67 1277.57Z" fill="#272727" fill-rule="evenodd"/></g></svg>